<?xml version="1.0" encoding="UTF-8"?>
<!DOCTYPE svg PUBLIC "-//W3C//DTD SVG 1.1//EN" "http://www.w3.org/Graphics/SVG/1.1/DTD/svg11.dtd"><svg xmlns="http://www.w3.org/2000/svg" xmlns:xlink="http://www.w3.org/1999/xlink">
  <symbol id="plyr-airplay"><path d="M16 1H2a1 1 0 0 0-1 1v10a1 1 0 0 0 1 1h3v-2H3V3h12v8h-2v2h3a1 1 0 0 0 1-1V2a1 1 0 0 0-1-1z"/><path d="M4 17h10l-5-6z"/></symbol>
  <symbol id="plyr-captions-off"><path d="M1 1c-.6 0-1 .4-1 1v11c0 .6.4 1 1 1h4.6l2.7 2.7c.2.2.4.3.7.3.3 0 .5-.1.7-.3l2.7-2.7H17c.6 0 1-.4 1-1V2c0-.6-.4-1-1-1H1zm4.52 10.15c1.99 0 3.01-1.32 3.28-2.41l-1.29-.39c-.19.66-.78 1.45-1.99 1.45-1.14 0-2.2-.83-2.2-2.34 0-1.61 1.12-2.37 2.18-2.37 1.23 0 1.78.75 1.95 1.43l1.3-.41C8.47 4.96 7.46 3.76 5.5 3.76c-1.9 0-3.61 1.44-3.61 3.7 0 2.26 1.65 3.69 3.63 3.69zm7.57 0c1.99 0 3.01-1.32 3.28-2.41l-1.29-.39c-.19.66-.78 1.45-1.99 1.45-1.14 0-2.2-.83-2.2-2.34 0-1.61 1.12-2.37 2.18-2.37 1.23 0 1.78.75 1.95 1.43l1.3-.41c-.28-1.15-1.29-2.35-3.25-2.35-1.9 0-3.61 1.44-3.61 3.7 0 2.26 1.65 3.69 3.63 3.69z" fill-rule="evenodd" fill-opacity=".5"/></symbol>
  <symbol id="plyr-captions-on"><path d="M1 1c-.6 0-1 .4-1 1v11c0 .6.4 1 1 1h4.6l2.7 2.7c.2.2.4.3.7.3.3 0 .5-.1.7-.3l2.7-2.7H17c.6 0 1-.4 1-1V2c0-.6-.4-1-1-1H1zm4.52 10.15c1.99 0 3.01-1.32 3.28-2.41l-1.29-.39c-.19.66-.78 1.45-1.99 1.45-1.14 0-2.2-.83-2.2-2.34 0-1.61 1.12-2.37 2.18-2.37 1.23 0 1.78.75 1.95 1.43l1.3-.41C8.47 4.96 7.46 3.76 5.5 3.76c-1.9 0-3.61 1.44-3.61 3.7 0 2.26 1.65 3.69 3.63 3.69zm7.57 0c1.99 0 3.01-1.32 3.28-2.41l-1.29-.39c-.19.66-.78 1.45-1.99 1.45-1.14 0-2.2-.83-2.2-2.34 0-1.61 1.12-2.37 2.18-2.37 1.23 0 1.78.75 1.95 1.43l1.3-.41c-.28-1.15-1.29-2.35-3.25-2.35-1.9 0-3.61 1.44-3.61 3.7 0 2.26 1.65 3.69 3.63 3.69z" fill-rule="evenodd"/></symbol>
  <symbol id="plyr-download"><path d="M9 13c.3 0 .5-.1.7-.3L15.4 7 14 5.6l-4 4V1H8v8.6l-4-4L2.6 7l5.7 5.7c.2.2.4.3.7.3zm-7 2h14v2H2z"/></symbol>
  <symbol id="plyr-enter-fullscreen"><path d="M10 3h3.6l-4 4L11 8.4l4-4V8h2V1h-7zM7 9.6l-4 4V10H1v7h7v-2H4.4l4-4z"/></symbol>
  <symbol id="plyr-exit-fullscreen"><path d="M1 12h3.6l-4 4L2 17.4l4-4V17h2v-7H1zM16 .6l-4 4V1h-2v7h7V6h-3.6l4-4z"/></symbol>
  <symbol id="plyr-fast-forward" viewBox="0 0 23 23"><g id="forward-10"><path fill="currentColor" d="M11.8291288,3.00143042 L10.4575629,1.08123819 L12.0850299,-0.0812381937 L15.0002,4 L12.0850299,8.08123819 L10.4575629,6.91876181 L11.8267943,5.0018379 C7.48849327,5.09398699 4,8.63960287 4,13 C4,17.418278 7.581722,21 12,21 C16.418278,21 20,17.418278 20,13 C20,11.4220159 19.5433052,9.91438076 18.6981119,8.6237266 L20.3712764,7.52804389 C21.4281248,9.14190637 22,11.0297737 22,13 C22,18.5228475 17.5228475,23 12,23 C6.4771525,23 2,18.5228475 2,13 C2,7.53422249 6.38510184,3.09264039 11.8291288,3.00143042 Z M8.56,17 L8.56,11.41 L6.9,11.92 L6.9,10.75 L9.88,9.91 L9.88,17 L8.56,17 Z M14.4,17.15 C13.8399972,17.15 13.3500021,17.0016682 12.93,16.705 C12.5099979,16.4083318 12.1850012,15.988336 11.955,15.445 C11.7249989,14.9016639 11.61,14.2600037 11.61,13.52 C11.61,12.786663 11.7249989,12.1466694 11.955,11.6 C12.1850012,11.0533306 12.5099979,10.6316681 12.93,10.335 C13.3500021,10.0383318 13.8399972,9.89 14.4,9.89 C14.9600028,9.89 15.4499979,10.0383318 15.87,10.335 C16.2900021,10.6316681 16.6149988,11.0533306 16.845,11.6 C17.0750012,12.1466694 17.19,12.786663 17.19,13.52 C17.19,14.2600037 17.0750012,14.9016639 16.845,15.445 C16.6149988,15.988336 16.2900021,16.4083318 15.87,16.705 C15.4499979,17.0016682 14.9600028,17.15 14.4,17.15 Z M14.4,15.97 C14.8400022,15.97 15.1916654,15.7533355 15.455,15.32 C15.7183347,14.8866645 15.85,14.2866705 15.85,13.52 C15.85,12.7533295 15.7183347,12.1533355 15.455,11.72 C15.1916654,11.2866645 14.8400022,11.07 14.4,11.07 C13.9599978,11.07 13.6083346,11.2866645 13.345,11.72 C13.0816654,12.1533355 12.95,12.7533295 12.95,13.52 C12.95,14.2866705 13.0816654,14.8866645 13.345,15.32 C13.6083346,15.7533355 13.9599978,15.97 14.4,15.97 Z M14.4575629,6.91876181 L16.5423928,4 L14.4575629,1.08123819 L16.0850299,-0.0812381937 L19.0002,4 L16.0850299,8.08123819 L14.4575629,6.91876181 Z"></path></g></symbol>
  <symbol id="plyr-logo-youtube"><path d="M16.8 5.8c-.2-1.3-.8-2.2-2.2-2.4C12.4 3 9 3 9 3s-3.4 0-5.6.4C2 3.6 1.3 4.5 1.2 5.8 1 7.1 1 9 1 9s0 1.9.2 3.2c.2 1.3.8 2.2 2.2 2.4C5.6 15 9 15 9 15s3.4 0 5.6-.4c1.4-.3 2-1.1 2.2-2.4.2-1.3.2-3.2.2-3.2s0-1.9-.2-3.2zM7 12V6l5 3-5 3z"/></symbol>
  <symbol id="plyr-muted"><path d="M12.4 12.5l2.1-2.1 2.1 2.1 1.4-1.4L15.9 9 18 6.9l-1.4-1.4-2.1 2.1-2.1-2.1L11 6.9 13.1 9 11 11.1zM3.786 6.008H.714C.286 6.008 0 6.31 0 6.76v4.512c0 .452.286.752.714.752h3.072l4.071 3.858c.5.3 1.143 0 1.143-.602V2.752c0-.601-.643-.977-1.143-.601L3.786 6.008z"/></symbol>
  <symbol id="plyr-pause"><path d="M6 1H3c-.6 0-1 .4-1 1v14c0 .6.4 1 1 1h3c.6 0 1-.4 1-1V2c0-.6-.4-1-1-1zm6 0c-.6 0-1 .4-1 1v14c0 .6.4 1 1 1h3c.6 0 1-.4 1-1V2c0-.6-.4-1-1-1h-3z"/></symbol>
  <symbol id="plyr-pip"><path d="M13.293 3.293L7.022 9.564l1.414 1.414 6.271-6.271L17 7V1h-6z"/><path d="M13 15H3V5h5V3H2a1 1 0 0 0-1 1v12a1 1 0 0 0 1 1h12a1 1 0 0 0 1-1v-6h-2v5z"/></symbol>
  <symbol id="plyr-play"><path d="M15.562 8.1L3.87.225c-.818-.562-1.87 0-1.87.9v15.75c0 .9 1.052 1.462 1.87.9L15.563 9.9c.584-.45.584-1.35 0-1.8z"/></symbol>
  <symbol id="plyr-restart"><path d="M9.7 1.2l.7 6.4 2.1-2.1c1.9 1.9 1.9 5.1 0 7-.9 1-2.2 1.5-3.5 1.5-1.3 0-2.6-.5-3.5-1.5-1.9-1.9-1.9-5.1 0-7 .6-.6 1.4-1.1 2.3-1.3l-.6-1.9C6 2.6 4.9 3.2 4 4.1 1.3 6.8 1.3 11.2 4 14c1.3 1.3 3.1 2 4.9 2 1.9 0 3.6-.7 4.9-2 2.7-2.7 2.7-7.1 0-9.9L16 1.9l-6.3-.7z"/></symbol>
  <symbol id="plyr-rewind" viewBox="0 0 23 23"><g id="back-10"><path fill="currentColor" d="M12.4521632,5.01256342 L13.8137335,6.91876181 L12.1862665,8.08123819 L9.27109639,4 L12.1862665,-0.0812381937 L13.8137335,1.08123819 L12.4365066,3.0093558 C17.7568368,3.23786247 22,7.6234093 22,13 C22,18.5228475 17.5228475,23 12,23 C6.4771525,23 2,18.5228475 2,13 C2,11.0297737 2.57187523,9.14190637 3.62872363,7.52804389 L5.30188812,8.6237266 C4.4566948,9.91438076 4,11.4220159 4,13 C4,17.418278 7.581722,21 12,21 C16.418278,21 20,17.418278 20,13 C20,8.73346691 16.6600802,5.24701388 12.4521632,5.01256342 Z M8.47,17 L8.47,11.41 L6.81,11.92 L6.81,10.75 L9.79,9.91 L9.79,17 L8.47,17 Z M14.31,17.15 C13.7499972,17.15 13.2600021,17.0016682 12.84,16.705 C12.4199979,16.4083319 12.0950011,15.9883361 11.865,15.445 C11.6349988,14.901664 11.52,14.2600037 11.52,13.52 C11.52,12.786663 11.6349988,12.1466694 11.865,11.6 C12.0950011,11.0533306 12.4199979,10.6316682 12.84,10.335 C13.2600021,10.0383319 13.7499972,9.89 14.31,9.89 C14.8700028,9.89 15.3599979,10.0383319 15.78,10.335 C16.2000021,10.6316682 16.5249988,11.0533306 16.755,11.6 C16.9850012,12.1466694 17.1,12.786663 17.1,13.52 C17.1,14.2600037 16.9850012,14.901664 16.755,15.445 C16.5249988,15.9883361 16.2000021,16.4083319 15.78,16.705 C15.3599979,17.0016682 14.8700028,17.15 14.31,17.15 Z M14.31,15.97 C14.7500022,15.97 15.1016653,15.7533355 15.365,15.32 C15.6283346,14.8866645 15.76,14.2866705 15.76,13.52 C15.76,12.7533295 15.6283346,12.1533355 15.365,11.72 C15.1016653,11.2866645 14.7500022,11.07 14.31,11.07 C13.8699978,11.07 13.5183346,11.2866645 13.255,11.72 C12.9916653,12.1533355 12.86,12.7533295 12.86,13.52 C12.86,14.2866705 12.9916653,14.8866645 13.255,15.32 C13.5183346,15.7533355 13.8699978,15.97 14.31,15.97 Z M7.72890361,4 L9.81373347,6.91876181 L8.18626653,8.08123819 L5.27109639,4 L8.18626653,-0.0812381937 L9.81373347,1.08123819 L7.72890361,4 Z"></path></g></symbol>
  <symbol id="plyr-settings"><path d="M16.135 7.784a2 2 0 0 1-1.23-2.969c.322-.536.225-.998-.094-1.316l-.31-.31c-.318-.318-.78-.415-1.316-.094a2 2 0 0 1-2.969-1.23C10.065 1.258 9.669 1 9.219 1h-.438c-.45 0-.845.258-.997.865a2 2 0 0 1-2.969 1.23c-.536-.322-.999-.225-1.317.093l-.31.31c-.318.318-.415.781-.093 1.317a2 2 0 0 1-1.23 2.969C1.26 7.935 1 8.33 1 8.781v.438c0 .45.258.845.865.997a2 2 0 0 1 1.23 2.969c-.322.536-.225.998.094 1.316l.31.31c.319.319.782.415 1.316.094a2 2 0 0 1 2.969 1.23c.151.607.547.865.997.865h.438c.45 0 .845-.258.997-.865a2 2 0 0 1 2.969-1.23c.535.321.997.225 1.316-.094l.31-.31c.318-.318.415-.781.094-1.316a2 2 0 0 1 1.23-2.969c.607-.151.865-.547.865-.997v-.438c0-.451-.26-.846-.865-.997zM9 12a3 3 0 1 1 0-6 3 3 0 0 1 0 6z"/></symbol>
  <symbol id="plyr-volume"><path d="M15.6 3.3c-.4-.4-1-.4-1.4 0-.4.4-.4 1 0 1.4C15.4 5.9 16 7.4 16 9c0 1.6-.6 3.1-1.8 4.3-.4.4-.4 1 0 1.4.2.2.5.3.7.3.3 0 .5-.1.7-.3C17.1 13.2 18 11.2 18 9s-.9-4.2-2.4-5.7z"/><path d="M11.282 5.282a.909.909 0 0 0 0 1.316c.735.735.995 1.458.995 2.402 0 .936-.425 1.917-.995 2.487a.909.909 0 0 0 0 1.316c.145.145.636.262 1.018.156a.725.725 0 0 0 .298-.156C13.773 11.733 14.13 10.16 14.13 9c0-.17-.002-.34-.011-.51-.053-.992-.319-2.005-1.522-3.208a.909.909 0 0 0-1.316 0zm-7.496.726H.714C.286 6.008 0 6.31 0 6.76v4.512c0 .452.286.752.714.752h3.072l4.071 3.858c.5.3 1.143 0 1.143-.602V2.752c0-.601-.643-.977-1.143-.601L3.786 6.008z"/></symbol>
</svg>